<?xml version="1.0" encoding="UTF-8" standalone="no"?>
<svg xmlns="http://www.w3.org/2000/svg" viewBox="0 0 280 140" width="280" height="140">
    <defs>
        
        <linearGradient id="bgGrad" x1="0%" y1="0%" x2="100%" y2="100%">
            <stop offset="0%" stop-color="#ecfdf5" />
            <stop offset="100%" stop-color="#d1fae5" />
        </linearGradient>
        <filter id="shadow" x="-10%" y="-10%" width="120%" height="120%">
            <feDropShadow dx="0" dy="4" stdDeviation="4" flood-color="#0f172a" flood-opacity="0.08" />
        </filter>
    </defs>
    
    <rect width="280" height="140" fill="url(#bgGrad)" />
    
    <g opacity="0.08">
        <pattern id="grid-green" width="16" height="16" patternUnits="userSpaceOnUse">
            <path d="M 16 0 L 0 0 0 16" fill="none" stroke="#10b981" stroke-width="1"/>
        </pattern>
        <rect width="280" height="140" fill="url(#grid-green)" />
    </g>
    
    <!-- Abstract background circles -->
    <circle cx="30" cy="110" r="30" fill="none" stroke="#10b981" stroke-width="1" opacity="0.1" />
    <circle cx="250" cy="30" r="40" fill="none" stroke="#10b981" stroke-width="1" opacity="0.1" />
    
    <!-- Central Content Group -->
    <g filter="url(#shadow)">
        
    <!-- A4 Page layout sheet -->
    <rect x="110" y="15" width="85" height="110" rx="4" fill="#ffffff" stroke="#10b981" stroke-width="2" />
    <!-- WhatsApp logo or green bubble overlaying A4 -->
    <rect x="65" y="45" width="55" height="38" rx="8" fill="#10b981" />
    <path d="M78,83 L68,90 L75,83 Z" fill="#10b981" />
    <text x="92" y="68" fill="#ffffff" font-family="sans-serif" font-weight="bold" font-size="16" text-anchor="middle">WA</text>
    <!-- Sizing arrows stretching into A4 -->
    <path d="M125,40 L160,40 M160,40 L154,34 M160,40 L154,46" fill="none" stroke="#10b981" stroke-width="2" stroke-linecap="round" />
    <!-- Placed scaled print preview on the A4 page -->
    <rect x="125" y="52" width="55" height="60" rx="2" fill="#eff6ff" stroke="#93c5fd" />

    </g>
</svg>